<svg xmlns="http://www.w3.org/2000/svg" viewBox="0 0 1200 900" role="img" aria-label="Modern remodeled kitchen and living space"><defs><linearGradient id="g" x1="0" y1="0" x2="1" y2="1"><stop stop-color="#111318"/><stop offset=".55" stop-color="#2a2019"/><stop offset="1" stop-color="#ff7a1a"/></linearGradient><filter id="s"><feDropShadow dx="0" dy="25" stdDeviation="25" flood-opacity=".35"/></filter></defs><rect width="1200" height="900" fill="url(#g)"/><path d="M0 190h1200v530H0z" fill="#ece7df"/><path d="M0 0h1200v210H0z" fill="#0c0d10"/><path d="M90 260h380v390H90z" fill="#17191f" filter="url(#s)"/><path d="M130 300h300v120H130z" fill="#ffb25f"/><path d="M130 450h300v160H130z" fill="#fff7ea"/><path d="M540 250h570v430H540z" fill="#111318" filter="url(#s)"/><path d="M590 300h210v330H590z" fill="#f8efe1"/><path d="M830 300h230v140H830z" fill="#ff7a1a"/><path d="M830 470h230v160H830z" fill="#fff"/><path d="M0 720h1200v180H0z" fill="#9b7458"/><path d="M0 720h1200" stroke="#ffb25f" stroke-width="14"/><circle cx="1000" cy="130" r="55" fill="#ff7a1a"/><text x="86" y="810" font-family="Arial Black,Arial" font-size="72" fill="#111318">BROTHERS REMODELING OKC</text><text x="90" y="860" font-family="Arial" font-size="32" fill="#111318">Kitchen • Bath • Interiors • Exteriors • Bilingual</text></svg>
